<svg xmlns="http://www.w3.org/2000/svg" width="111" height="114" viewBox="0 0 111 114">
    <g fill="none" fill-rule="evenodd">
        <g stroke-width="8">
            <path stroke="#E9F0F5" d="M55.5 109.891c22.135 0 41.008-14.292 48.29-34.353A53.704 53.704 0 0 0 107 57.181a53.85 53.85 0 0 0-2.236-15.413A53.041 53.041 0 0 0 98.8 28.634a52.758 52.758 0 0 0-6.625-8.457 51.94 51.94 0 0 0-9.855-8.003A50.604 50.604 0 0 0 68.967 6.29 50.452 50.452 0 0 0 55.5 4.47C27.057 4.47 4 28.07 4 57.18c0 29.112 23.057 52.711 51.5 52.711z" opacity=".52"/>
            <path stroke="#FFF" d="M107 56.669c0-5.31-.775-10.435-2.215-15.263A52.526 52.526 0 0 0 98.881 28.4a52.246 52.246 0 0 0-6.56-8.375 51.435 51.435 0 0 0-9.76-7.926 50.112 50.112 0 0 0-13.225-5.826A49.963 49.963 0 0 0 56 4.47"/>
            <path stroke="#FFF" d="M92 19.823A52.114 52.114 0 0 0 82.058 12a51.892 51.892 0 0 0-13.473-5.75A52.43 52.43 0 0 0 55 4.47"/>
        </g>
        <g fill="#FFF" font-family="OpenSans, Open Sans">
            <text font-size="33" transform="translate(33 32.105)">
                <tspan x="0" y="35">2</tspan>
            </text>
            <text font-size="17" letter-spacing=".486" transform="translate(33 32.105)">
                <tspan x="23" y="23.118">/ 8</tspan>
            </text>
        </g>
    </g>
</svg>
