<svg xmlns="http://www.w3.org/2000/svg" xmlns:xlink="http://www.w3.org/1999/xlink" width="123" height="33" viewBox="0 0 123 33">
    <defs>
        <path id="a" d="M34.253 33H0V0h34.253v33z"/>
    </defs>
    <g fill="none" fill-rule="evenodd">
        <path fill="#FEFEFE" d="M18.383 13.183a2.2 2.2 0 0 0-.673-.451 2.045 2.045 0 0 0-.827-.17h-2.708v4.11h2.708c.288 0 .56-.055.816-.165a2.175 2.175 0 0 0 1.13-1.107c.113-.247.169-.509.169-.786 0-.272-.055-.532-.165-.779a2.12 2.12 0 0 0-.45-.652M28.683 13.641a4.122 4.122 0 0 0-1.34-.796 4.606 4.606 0 0 0-1.606-.282h-2.349v8.065h2.437a4.08 4.08 0 0 0 2.133-.589c.305-.186.58-.406.823-.663a4.204 4.204 0 0 0 1.017-1.808c.093-.343.14-.693.14-1.05 0-.597-.114-1.14-.34-1.629a3.806 3.806 0 0 0-.915-1.248"/>
        <g>
            <mask id="b" fill="#fff">
                <use xlink:href="#a"/>
            </mask>
            <path fill="#FEFEFE" d="M30.988 17.991a5.157 5.157 0 0 1-1.394 2.305c-.332.32-.7.593-1.102.818a5.62 5.62 0 0 1-2.755.712H22.46a.414.414 0 0 1-.238-.067c-.066-.044-.099-.123-.099-.236v-9.828c0-.225.112-.338.337-.338h3.278a5.695 5.695 0 0 1 2.777.712c.403.226.769.497 1.098.814a5.09 5.09 0 0 1 1.38 2.313c.126.449.19.917.19 1.406 0 .48-.065.942-.194 1.389zm-10.98-2.119a3.272 3.272 0 0 1-.707 1.033c-.3.296-.653.531-1.06.705-.408.174-.848.261-1.321.261h-2.744v3.645c0 .207-.11.31-.33.31h-.614c-.215 0-.323-.103-.323-.31v-9.82c0-.226.113-.339.337-.339h3.637a3.402 3.402 0 0 1 2.408.97c.302.298.54.646.713 1.043.173.397.26.816.26 1.258 0 .437-.086.852-.256 1.244zm-9.188 4.185a3.082 3.082 0 0 1-.874 1.029c-.37.282-.805.5-1.303.652a5.43 5.43 0 0 1-1.602.23c-.38 0-.754-.039-1.12-.114a5.078 5.078 0 0 1-1.054-.338 4.837 4.837 0 0 1-.947-.56 4.48 4.48 0 0 1-.794-.772c-.078-.1-.117-.184-.117-.254 0-.08.044-.155.131-.226l.469-.373a.462.462 0 0 1 .227-.078c.034 0 .067.01.098.028a.606.606 0 0 1 .092.067c.03.026.056.05.08.074l.052.05a3.8 3.8 0 0 0 .72.567c.266.162.532.298.798.409.266.11.522.194.768.25.247.057.458.085.633.085a3.933 3.933 0 0 0 1.27-.215c.207-.073.404-.165.589-.275.185-.11.348-.24.487-.388.139-.148.249-.316.329-.504.08-.188.12-.395.12-.62 0-.287-.081-.53-.244-.727a2.018 2.018 0 0 0-.659-.504 5.22 5.22 0 0 0-.948-.356 40.69 40.69 0 0 0-1.105-.289c-.6-.15-1.125-.312-1.577-.486a4.732 4.732 0 0 1-1.126-.596 2.3 2.3 0 0 1-.674-.75 1.98 1.98 0 0 1-.223-.952c0-.428.089-.82.267-1.178.178-.357.43-.665.757-.923a3.559 3.559 0 0 1 1.186-.6c.463-.14.98-.211 1.551-.211.293 0 .593.033.9.099.308.065.605.158.893.278.288.12.564.261.827.423a4.113 4.113 0 0 1 .893.737c.063.07.095.136.095.197 0 .07-.04.144-.117.219l-.44.409c-.068.066-.133.098-.197.098-.078 0-.166-.047-.263-.14a9.944 9.944 0 0 0-.44-.346 4.416 4.416 0 0 0-1.338-.673 2.934 2.934 0 0 0-.864-.124c-.415 0-.77.05-1.068.148a2.209 2.209 0 0 0-.736.392 1.53 1.53 0 0 0-.424.546c-.09.202-.136.404-.136.606 0 .24.077.448.23.624.155.177.355.33.6.458.247.13.525.241.835.335.31.094.623.184.94.268.288.075.585.155.89.24.304.085.6.18.889.285.288.106.558.23.812.37.254.142.476.308.666.501.19.193.34.415.45.666.11.252.165.542.165.871 0 .503-.106.957-.319 1.36zM0 33h34.253V0H0v33z" mask="url(#b)"/>
        </g>
        <path fill="#FEFEFE" d="M38.13 17.497c0 .456.074.882.223 1.28.149.397.36.74.633 1.032.273.292.606.522.999.691.393.17.835.254 1.328.254.517 0 .976-.085 1.376-.254.4-.169.735-.4 1.006-.694.27-.294.476-.64.615-1.036.139-.398.208-.822.208-1.273v-5.88c0-.084.033-.157.1-.218a.346.346 0 0 1 .244-.092h.556c.093 0 .178.028.256.085a.265.265 0 0 1 .117.225v6.021c0 .649-.117 1.237-.35 1.766a4.06 4.06 0 0 1-.963 1.357 4.365 4.365 0 0 1-1.427.874 4.848 4.848 0 0 1-1.738.31 4.464 4.464 0 0 1-1.734-.338 4.553 4.553 0 0 1-1.423-.927 4.369 4.369 0 0 1-.963-1.371 4.033 4.033 0 0 1-.351-1.671v-6.02c0-.071.028-.14.084-.209a.274.274 0 0 1 .223-.102h.637c.073 0 .149.03.227.092.078.06.117.134.117.218v5.88zM56.212 21.776a.337.337 0 0 1-.27-.134l-6.675-8.439v8.263c0 .207-.112.31-.336.31h-.608c-.214 0-.322-.103-.322-.31v-9.835c0-.094.03-.171.088-.232a.31.31 0 0 1 .234-.092h.813c.112 0 .205.047.278.141l6.571 8.241v-8.107a.302.302 0 0 1 .099-.2.326.326 0 0 1 .223-.075h.6c.088 0 .168.028.242.085a.27.27 0 0 1 .11.225v9.85c0 .206-.118.31-.352.31h-.695zM60.851 21.466c0 .103-.03.181-.088.233a.353.353 0 0 1-.241.077h-.607c-.22 0-.33-.103-.33-.31v-9.849c0-.094.028-.169.084-.225.056-.057.138-.085.246-.085h.607c.097 0 .177.028.238.085.06.056.091.131.091.225v9.849zM63.763 11.596a197.114 197.114 0 0 0 .758 1.819l.486 1.156.517 1.22c.172.409.345.812.515 1.209l.483 1.128.414.97c.124.29.23.538.318.74.083-.202.187-.45.311-.74l.413-.97c.152-.355.31-.73.476-1.128a401.472 401.472 0 0 1 1.025-2.436c.17-.404.331-.79.483-1.156.15-.367.292-.706.424-1.019.132-.312.244-.581.337-.807a.493.493 0 0 1 .15-.197.397.397 0 0 1 .252-.078h.637c.214 0 .322.08.322.24a.476.476 0 0 1-.015.098.241.241 0 0 1-.022.07l-4.2 9.78-.037.084a.323.323 0 0 1-.168.165.405.405 0 0 1-.176.032h-.424a.324.324 0 0 1-.245-.095.674.674 0 0 1-.128-.173l-4.157-9.623a1.466 1.466 0 0 1-.058-.137.702.702 0 0 1-.044-.215c0-.15.105-.226.314-.226h.644c.098 0 .18.026.25.078a.422.422 0 0 1 .145.211M81.1 11.307c.219 0 .328.11.328.331v.571a.33.33 0 0 1-.087.226c-.059.066-.144.099-.257.099h-6.08v3.116h4.836c.088 0 .164.026.227.077.064.052.095.134.095.247v.578c0 .085-.026.16-.08.226-.054.066-.134.099-.242.099h-4.836v3.673h6.146c.22 0 .33.11.33.33v.586c0 .207-.108.31-.322.31h-7.099c-.214 0-.321-.098-.321-.296v-9.849c0-.216.107-.324.321-.324h7.04zM89.88 14.628c0-.282-.056-.55-.168-.804a2.2 2.2 0 0 0-2.02-1.311h-3.285v4.222h3.307a2.152 2.152 0 0 0 1.998-1.3c.112-.256.168-.525.168-.807zm-6.74-2.983c0-.108.03-.191.088-.25a.316.316 0 0 1 .234-.088h4.23a3.474 3.474 0 0 1 2.44.976c.31.304.554.657.732 1.061.178.405.268.835.268 1.29 0 .334-.05.654-.147.96a3.322 3.322 0 0 1-1.039 1.547 3.4 3.4 0 0 1-.812.504l1.924 3.821a.361.361 0 0 1 .037.127.16.16 0 0 1-.07.13.314.314 0 0 1-.194.053h-.739a.347.347 0 0 1-.23-.07.552.552 0 0 1-.143-.198l-1.77-3.588c-.055.01-.11.015-.169.018a6.054 6.054 0 0 1-.234.003h-3.14v3.525c0 .207-.107.31-.322.31h-.622c-.214 0-.321-.103-.321-.31v-9.82zM99.108 13.478a9.928 9.928 0 0 0-.44-.345 4.408 4.408 0 0 0-1.339-.673 2.939 2.939 0 0 0-.863-.124c-.415 0-.77.05-1.068.148-.298.1-.543.23-.736.392a1.532 1.532 0 0 0-.424.546c-.09.202-.136.404-.136.606 0 .24.077.448.23.624.154.176.354.33.6.458.247.13.525.241.835.335.31.094.623.184.94.268.288.075.585.155.89.24.304.085.6.18.889.285.287.106.558.23.812.37.254.142.476.308.666.501.19.193.34.415.45.666.11.252.164.542.164.871 0 .503-.106.957-.318 1.36a3.078 3.078 0 0 1-.874 1.03c-.371.282-.805.5-1.303.652a5.43 5.43 0 0 1-1.602.23 5.56 5.56 0 0 1-1.12-.114 5.068 5.068 0 0 1-1.054-.338 4.827 4.827 0 0 1-.947-.56 4.48 4.48 0 0 1-.794-.772c-.079-.1-.118-.184-.118-.254 0-.08.045-.155.132-.226l.469-.374a.463.463 0 0 1 .226-.077c.034 0 .068.01.1.028a.615.615 0 0 1 .09.067 2.836 2.836 0 0 1 .132.124c.215.216.455.405.721.567.266.162.532.299.798.409.266.11.522.194.768.25.247.057.458.085.633.085a3.931 3.931 0 0 0 1.27-.215c.207-.073.403-.165.589-.275.185-.11.348-.24.487-.388.138-.148.248-.316.329-.504.08-.188.12-.395.12-.62 0-.287-.081-.53-.245-.726a2.02 2.02 0 0 0-.658-.505 5.22 5.22 0 0 0-.948-.356 40.69 40.69 0 0 0-1.105-.289c-.6-.15-1.126-.312-1.577-.486a4.732 4.732 0 0 1-1.127-.596 2.3 2.3 0 0 1-.673-.75 1.98 1.98 0 0 1-.223-.952c0-.428.089-.82.267-1.178a2.71 2.71 0 0 1 .757-.923 3.559 3.559 0 0 1 1.186-.6 5.32 5.32 0 0 1 1.551-.211c.293 0 .593.033.9.099.308.066.605.158.893.278.288.12.563.261.827.423a4.113 4.113 0 0 1 .893.737c.063.07.095.136.095.197 0 .07-.04.144-.117.219l-.44.409c-.068.066-.134.098-.197.098-.078 0-.166-.047-.263-.14M103.615 21.466c0 .103-.029.181-.087.233a.353.353 0 0 1-.242.077h-.607c-.22 0-.33-.103-.33-.31v-9.849c0-.094.028-.169.084-.225.057-.057.138-.085.246-.085h.607c.098 0 .177.028.238.085a.293.293 0 0 1 .091.225v9.849zM112.975 11.307c.087 0 .165.026.234.078.068.051.107.129.117.232v.578a.34.34 0 0 1-.092.24c-.06.066-.147.099-.26.099h-3.124v8.925c0 .09-.028.165-.084.226-.056.06-.14.091-.253.091h-.592a.34.34 0 0 1-.242-.088.297.297 0 0 1-.095-.229v-8.925h-3.14a.345.345 0 0 1-.237-.081c-.061-.054-.092-.14-.092-.258v-.578c0-.094.03-.169.092-.225a.337.337 0 0 1 .238-.085h7.53zM114.401 11.667c-.063-.09-.095-.16-.095-.212 0-.099.073-.148.22-.148h.951l.117.014a.16.16 0 0 1 .08.039c.025.021.05.05.078.088l.106.155 2.715 4.308 2.758-4.364a.567.567 0 0 1 .158-.184.455.455 0 0 1 .179-.056h1.002c.118 0 .176.042.176.127a.277.277 0 0 1-.018.08.391.391 0 0 1-.062.11c-.6.93-1.19 1.853-1.771 2.767-.58.915-1.176 1.837-1.786 2.768v4.286c0 .22-.11.331-.329.331h-.63c-.204 0-.307-.11-.307-.331V17.2l-3.542-5.534z"/>
    </g>
</svg>
